<?xml version="1.0" encoding="utf-8"?>
<!-- Generator: Adobe Illustrator 22.0.1, SVG Export Plug-In . SVG Version: 6.00 Build 0)  -->
<svg version="1.1" id="Calque_1" xmlns="http://www.w3.org/2000/svg" xmlns:xlink="http://www.w3.org/1999/xlink" x="0px" y="0px"
	 viewBox="0 0 293.3 318.9" style="enable-background:new 0 0 293.3 318.9;" xml:space="preserve">
<style type="text/css">
	.st0{fill:#646464;}
	.st1{fill:#0DC473;}
	.st2{fill:#FF003B;}
</style>
<circle class="st0" cx="34.1" cy="131" r="18.7"/>
<circle class="st0" cx="184.3" cy="204.9" r="18.7"/>
<circle class="st0" cx="259.8" cy="204.9" r="18.7"/>
<circle class="st0" cx="259.8" cy="280.7" r="18.7"/>
<circle class="st0" cx="184.4" cy="280.7" r="18.7"/>
<circle class="st0" cx="109" cy="280.1" r="18.7"/>
<circle class="st0" cx="259.8" cy="54.5" r="18.7"/>
<circle class="st0" cx="109.5" cy="204.9" r="18.7"/>
<circle class="st0" cx="109.5" cy="131.4" r="18.7"/>
<path class="st0" d="M33.3,298.9L33.3,298.9c-10.1,0-18.4-8.3-18.4-18.4v-76.8c0-10.1,8.3-18.4,18.4-18.4h0
	c10.1,0,18.4,8.3,18.4,18.4v76.8C51.7,290.6,43.4,298.9,33.3,298.9z"/>
<path class="st0" d="M260.9,147.6h-77.4c-9.8,0-17.8-8-17.8-17.8v0c0-9.8,8-17.8,17.8-17.8h77.4c9.8,0,17.8,8,17.8,17.8v0
	C278.7,139.6,270.7,147.6,260.9,147.6z"/>
<path class="st0" d="M184,72.2H33.3c-9.8,0-17.8-8-17.8-17.8v0c0-9.8,8-17.8,17.8-17.8H184c9.8,0,17.8,8,17.8,17.8v0
	C201.8,64.2,193.8,72.2,184,72.2z"/>
<circle class="st1" cx="260" cy="129.9" r="15"/>
<circle class="st2" cx="33.1" cy="279.5" r="15"/>
<circle class="st1" cx="183.8" cy="54.4" r="15"/>
</svg>
